999
FreeCAD v0.20 29177 +426 (Git)
  0
SECTION
  2
HEADER
  9
$ACADVER
  1
AC1014
  9
$ACADMAINTVER
 70
     9
  9
$DWGCODEPAGE
  3
ANSI_1252
  9
$TEXTSTYLE
  7
STANDARD
  9
$DIMSTYLE
  2
STANDARD
  9
$DIMTXSTY
  7
STANDARD
  9
$CMLSTYLE
  2
STANDARD
  9
$LUNITS
 70
2
  9
$INSUNITS
 70
4
  9
$PEXTMAX
 10
50
 20
50
 30
50
  9
$PEXTMIN
 10
0
 20
0
 30
0
  9
$HANDSEED
  5
FFFF
  0
ENDSEC
  0
SECTION
  2
CLASSES
  0
CLASS
  1
ACDBDICTIONARYWDFLT
  2
AcDbDictionaryWithDefault
  3
ObjectDBX Classes
 90
        0
280
     0
281
     0
  0
CLASS
  1
XRECORD
  2
AcDbXrecord
  3
ObjectDBX Classes
 90
        0
280
     0
281
     0
  0
CLASS
  1
LWPOLYLINE
  2
AcDbPolyline
  3
ObjectDBX Classes
 90
        0
280
     0
281
     1
  0
ENDSEC
  0
SECTION
  2
TABLES
  0
TABLE
  2
VPORT
  5
20
330
0
100
AcDbSymbolTable
 70
     1
  0
VPORT
  5
21
330
20
100
AcDbSymbolTableRecord
100
AcDbViewportTableRecord
  2
*ACTIVE
 70
     0
  0
ENDTAB
  0
TABLE
  2
LTYPE
  5
22
330
0
100
AcDbSymbolTable
 70
     1
  0
LTYPE
  5
23
330
21
100
AcDbSymbolTableRecord
100
AcDbLinetypeTableRecord
  2
BYBLOCK
 70
     0
  3

 72
    65
 73
     0
 40
0.0
  0
LTYPE
  5
24
330
21
100
AcDbSymbolTableRecord
100
AcDbLinetypeTableRecord
  2
BYLAYER
 70
     0
  3

 72
    65
 73
     0
 40
0.0
  0
LTYPE
  5
25
330
21
100
AcDbSymbolTableRecord
100
AcDbLinetypeTableRecord
  2
CONTINUOUS
 70
     0
  3
Solid line
 72
    65
 73
     0
 40
0.0
  0
ENDTAB
  0
TABLE
  2
LAYER
  5
B1C
330
0
100
AcDbSymbolTable
 70
3
  0
LAYER
  5
B1D
330
B1C
100
AcDbSymbolTableRecord
100
AcDbLayerTableRecord
  2
0
 70
   0
 62
   7
  6
CONTINUOUS
  0
LAYER
  5
B1E
330
B1C
100
AcDbSymbolTableRecord
100
AcDbLayerTableRecord
  2
none
 70
    0
 62
    7
  6
CONTINUOUS
  0
LAYER
  5
B1F
330
B1C
100
AcDbSymbolTableRecord
100
AcDbLayerTableRecord
  2
Groove
 70
    0
 62
    7
  6
CONTINUOUS
  0
ENDTAB
  0
TABLE
  2
STYLE
  5
70
330
0
100
AcDbSymbolTable
 70
     2
  0
STYLE
  5
71
330
70
100
AcDbSymbolTableRecord
100
AcDbTextStyleTableRecord
  2
STANDARD
 70
     0
 40
0.0
 41
1.0
 50
0.0
 71
     0
 42
2.5
  3
arial.ttf
  4

  0
STYLE
  5
72
330
70
100
AcDbSymbolTableRecord
100
AcDbTextStyleTableRecord
  2
ANNOTATIVE
 70
     0
 40
0.0
 41
1.0
 50
0.0
 71
     0
 42
2.5
  3
arial.ttf
  4

  0
ENDTAB
  0
TABLE
  2
VIEW
  5
73
330
0
100
AcDbSymbolTable
 70
     0
  0
ENDTAB
  0
TABLE
  2
UCS
  5
74
330
0
100
AcDbSymbolTable
 70
     0
  0
ENDTAB
  0
TABLE
  2
APPID
  5
75
330
0
100
AcDbSymbolTable
 70
     2
  0
APPID
  5
76
330
75
100
AcDbSymbolTableRecord
100
AcDbRegAppTableRecord
  2
ACAD
 70
     0
  0
APPID
  5
77
330
75
100
AcDbSymbolTableRecord
100
AcDbRegAppTableRecord
  2
ACADANNOTATIVE
 70
     0
  0
ENDTAB
  0
TABLE
  2
DIMSTYLE
  5
78
330
0
100
AcDbSymbolTable
 70
     2
  0
DIMSTYLE
105
79
330
78
100
AcDbSymbolTableRecord
100
AcDbDimStyleTableRecord
  2
STANDARD
 70
     0
  3

  4

  5

  6

  7

 40
0.0
 41
2.5
 42
0.625
 43
3.75
 44
1.25
 45
0.0
 46
0.0
 47
0.0
 48
0.0
140
2.5
141
2.5
142
0.0
143
0.03937007874016
144
1.0
145
0.0
146
1.0
147
0.625
 71
     0
 72
     0
 73
     0
 74
     0
 75
     0
 76
     0
 77
     1
 78
     8
170
     0
171
     3
172
     1
173
     0
174
     0
175
     0
176
     0
177
     0
178
     0
270
     2
271
     2
272
     2
273
     2
274
     3
340
71
275
     0
280
     0
281
     0
282
     0
283
     0
284
     8
285
     0
286
     0
287
     3
288
     0
  0
ENDTAB
  0
TABLE
  2
BLOCK_RECORD
  5
A01
330
0
100
AcDbSymbolTable
  70
5
  0
BLOCK_RECORD
  5
A02
330
A01
100
AcDbSymbolTableRecord
100
AcDbBlockTableRecord
  2
*MODEL_SPACE
  0
BLOCK_RECORD
  5
A03
330
A01
100
AcDbSymbolTableRecord
100
AcDbBlockTableRecord
  2
*PAPER_SPACE
  0
ENDTAB
  0
ENDSEC
  0
SECTION
  2
BLOCKS
  0
BLOCK
  5
A04
330
A02
100
AcDbEntity
  8
0
100
AcDbBlockBegin
  2
*MODEL_SPACE
 70
   0
 10
0
 20
0
 30
0
  3
*MODEL_SPACE
  1
 
  0
ENDBLK
  5
A05
330
A02
100
AcDbEntity
  8
0
100
AcDbBlockEnd
  0
BLOCK
  5
A06
330
A03
100
AcDbEntity
 67
1
  8
0
100
AcDbBlockBegin
  2
*PAPER_SPACE
 70
   0
 10
0
 20
0
 30
0
  3
*PAPER_SPACE
  1
 
  0
ENDBLK
  5
A07
330
A03
100
AcDbEntity
 67
    1
  8
0
100
AcDbBlockEnd
  0
ENDSEC
  0
SECTION
  2
ENTITIES
  0
ARC
  5
A08
330
A02
100
AcDbEntity
  8
Groove
100
AcDbCircle
 10
38
 20
22.5
 30
-6.9e-16
 40
5
100
AcDbArc
 50
0
 51
90
  0
LINE
  5
A09
330
A02
100
AcDbEntity
  8
Groove
100
AcDbLine
 10
-38
 20
27.5
 30
0
 11
38
 21
27.5
 31
0
  0
ARC
  5
A0A
330
A02
100
AcDbEntity
  8
Groove
100
AcDbCircle
 10
-38
 20
22.5
 30
-1.3e-16
 40
5
100
AcDbArc
 50
90
 51
180
  0
LINE
  5
A0B
330
A02
100
AcDbEntity
  8
Groove
100
AcDbLine
 10
-43
 20
14.9999
 30
0
 11
-43
 21
22.5
 31
0
  0
SPLINE
  5
A0C
330
A02
100
AcDbEntity
  8
Groove
100
AcDbSpline
210
0
220
0
230
1
 70
8
 71
3
 72
14
 73
10
 74
0
 40
0.497976
 40
0.497976
 40
0.497976
 40
0.497976
 40
0.717693
 40
0.717693
 40
0.717693
 40
0.862696
 40
0.862696
 40
0.862696
 40
1
 40
1
 40
1
 40
1
 10
-43
 20
14.9999
 30
7.84336e-17
 10
-41.272
 20
15.0153
 30
6.11541e-17
 10
-39.5474
 20
14.4086
 30
4.39081e-17
 10
-38.2101
 20
13.3142
 30
3.05346e-17
 10
-37.3256
 20
12.5957
 30
2.16891e-17
 10
-36.6087
 20
11.6724
 30
1.45209e-17
 10
-36.1323
 20
10.6371
 30
9.75659e-18
 10
-35.6797
 20
9.65749
 30
5.23022e-18
 10
-35.4428
 20
8.57912
 30
2.86211e-18
 10
-35.4436
 20
7.5
 30
2.8698e-18
  0
LINE
  5
A0D
330
A02
100
AcDbEntity
  8
Groove
100
AcDbLine
 10
-35.4436
 20
7.5
 30
-8.9653e-17
 11
-35.4436
 21
-7.5
 31
-8.9653e-17
  0
SPLINE
  5
A0E
330
A02
100
AcDbEntity
  8
Groove
100
AcDbSpline
210
0
220
0
230
1
 70
8
 71
3
 72
14
 73
10
 74
0
 40
0
 40
0
 40
0
 40
0
 40
0.115591
 40
0.115591
 40
0.115591
 40
0.334596
 40
0.334596
 40
0.334596
 40
0.502019
 40
0.502019
 40
0.502019
 40
0.502019
 10
-35.4436
 20
-7.5
 30
2.8698e-18
 10
-35.4432
 20
-8.40831
 30
2.86591e-18
 10
-35.6103
 20
-9.31631
 30
4.53657e-18
 10
-35.9338
 20
-10.165
 30
7.77211e-18
 10
-36.5423
 20
-11.7765
 30
1.38568e-17
 10
-37.7276
 20
-13.1603
 30
2.57096e-17
 10
-39.2256
 20
-14.0105
 30
4.06898e-17
 10
-40.3676
 20
-14.6646
 30
5.21097e-17
 10
-41.684
 20
-15.0097
 30
6.52733e-17
 10
-43
 20
-14.9999
 30
7.84336e-17
  0
LINE
  5
A0F
330
A02
100
AcDbEntity
  8
Groove
100
AcDbLine
 10
-43
 20
-22.5
 30
0
 11
-43
 21
-14.9999
 31
0
  0
ARC
  5
A10
330
A02
100
AcDbEntity
  8
Groove
100
AcDbCircle
 10
-38
 20
-22.5
 30
-4e-17
 40
5
100
AcDbArc
 50
180
 51
-90
  0
LINE
  5
A11
330
A02
100
AcDbEntity
  8
Groove
100
AcDbLine
 10
38
 20
-27.5
 30
0
 11
-38
 21
-27.5
 31
0
  0
ARC
  5
A12
330
A02
100
AcDbEntity
  8
Groove
100
AcDbCircle
 10
38
 20
-22.5
 30
-6e-16
 40
5
100
AcDbArc
 50
-90
 51
0
  0
LINE
  5
A13
330
A02
100
AcDbEntity
  8
Groove
100
AcDbLine
 10
43
 20
-14.9999
 30
0
 11
43
 21
-22.5
 31
0
  0
SPLINE
  5
A14
330
A02
100
AcDbEntity
  8
Groove
100
AcDbSpline
210
0
220
0
230
1
 70
8
 71
2
 72
6
 73
3
 74
0
 40
0.421062
 40
0.421062
 40
0.421062
 40
0.502019
 40
0.502019
 40
0.502019
 10
41.1104
 20
-14.7705
 30
-7.6267e-16
 10
42.0406
 20
-15.0053
 30
-7.71972e-16
 10
43
 20
-14.9999
 30
-7.81566e-16
  0
LINE
  5
A15
330
A02
100
AcDbEntity
  8
Groove
100
AcDbLine
 10
19
 20
-14.7705
 30
0
 11
41.1104
 21
-14.7705
 31
0
  0
LINE
  5
A16
330
A02
100
AcDbEntity
  8
Groove
100
AcDbLine
 10
19
 20
-2.54027
 30
-6.36275e-16
 11
19
 21
-14.7705
 31
2.05438e-15
  0
LINE
  5
A17
330
A02
100
AcDbEntity
  8
Groove
100
AcDbLine
 10
19
 20
-2.54027
 30
-1.78e-15
 11
35.4436
 21
-2.54027
 31
-1.78e-15
  0
LINE
  5
A18
330
A02
100
AcDbEntity
  8
Groove
100
AcDbLine
 10
35.4436
 20
2.54027
 30
-7.98525e-16
 11
35.4436
 21
-2.54027
 31
-7.98525e-16
  0
LINE
  5
A19
330
A02
100
AcDbEntity
  8
Groove
100
AcDbLine
 10
19
 20
2.54027
 30
-8.9e-16
 11
35.4436
 21
2.54027
 31
-8.9e-16
  0
LINE
  5
A1A
330
A02
100
AcDbEntity
  8
Groove
100
AcDbLine
 10
19
 20
14.7705
 30
-2.79519e-16
 11
19
 21
2.54027
 31
2.41114e-15
  0
LINE
  5
A1B
330
A02
100
AcDbEntity
  8
Groove
100
AcDbLine
 10
19
 20
14.7705
 30
0
 11
41.1104
 21
14.7705
 31
0
  0
SPLINE
  5
A1C
330
A02
100
AcDbEntity
  8
Groove
100
AcDbSpline
210
0
220
0
230
1
 70
8
 71
2
 72
6
 73
3
 74
0
 40
0.497976
 40
0.497976
 40
0.497976
 40
0.578936
 40
0.578936
 40
0.578936
 10
43
 20
14.9999
 30
-7.81566e-16
 10
42.0406
 20
15.0053
 30
-7.71973e-16
 10
41.1104
 20
14.7705
 30
-7.6267e-16
  0
LINE
  5
A1D
330
A02
100
AcDbEntity
  8
Groove
100
AcDbLine
 10
43
 20
22.5
 30
-1.108e-14
 11
43
 21
14.9999
 31
-9.42997e-15
  0
CIRCLE
  5
A1E
330
A02
100
AcDbEntity
  8
Groove
100
AcDbCircle
 10
35
 20
-19.5
 40
3
  0
LINE
  5
A1F
330
A02
100
AcDbEntity
  8
Groove
100
AcDbLine
 10
-12.5
 20
-23
 30
-2.10328e-16
 11
12.5
 21
-23
 31
-4.60328e-16
  0
ARC
  5
A20
330
A02
100
AcDbEntity
  8
Groove
100
AcDbCircle
 10
-12.5
 20
-24
 30
0
 40
1
100
AcDbArc
 50
90
 51
-90
  0
ARC
  5
A21
330
A02
100
AcDbEntity
  8
Groove
100
AcDbCircle
 10
12.5
 20
-24
 30
-4.44089e-16
 40
1
100
AcDbArc
 50
-90
 51
90
  0
LINE
  5
A22
330
A02
100
AcDbEntity
  8
Groove
100
AcDbLine
 10
12.5
 20
-25
 30
-3.63283e-16
 11
-12.5
 21
-25
 31
-1.13283e-16
  0
CIRCLE
  5
A23
330
A02
100
AcDbEntity
  8
Groove
100
AcDbCircle
 10
-35
 20
-19.5
 40
3
  0
CIRCLE
  5
A24
330
A02
100
AcDbEntity
  8
Groove
100
AcDbCircle
 10
35
 20
19.5
 40
3
  0
LINE
  5
A25
330
A02
100
AcDbEntity
  8
Groove
100
AcDbLine
 10
-12.5
 20
25
 30
-2.10328e-16
 11
12.5
 21
25
 31
-4.60328e-16
  0
ARC
  5
A26
330
A02
100
AcDbEntity
  8
Groove
100
AcDbCircle
 10
-12.5
 20
24
 30
0
 40
1
100
AcDbArc
 50
90
 51
-90
  0
ARC
  5
A27
330
A02
100
AcDbEntity
  8
Groove
100
AcDbCircle
 10
12.5
 20
24
 30
-4.44089e-16
 40
1
100
AcDbArc
 50
-90
 51
90
  0
LINE
  5
A28
330
A02
100
AcDbEntity
  8
Groove
100
AcDbLine
 10
12.5
 20
23
 30
-3.63283e-16
 11
-12.5
 21
23
 31
-1.13283e-16
  0
CIRCLE
  5
A29
330
A02
100
AcDbEntity
  8
Groove
100
AcDbCircle
 10
-35
 20
19.5
 40
3
  0
ARC
  5
A2A
330
A02
100
AcDbEntity
  8
Groove
100
AcDbCircle
 10
38
 20
22.5
 30
-6.9e-16
 40
5
100
AcDbArc
 50
0
 51
90
  0
LINE
  5
A2B
330
A02
100
AcDbEntity
  8
Groove
100
AcDbLine
 10
38
 20
27.5
 30
-1e-15
 11
38
 21
27.5
 31
2
  0
LINE
  5
A2C
330
A02
100
AcDbEntity
  8
Groove
100
AcDbLine
 10
43
 20
22.5
 30
-1e-15
 11
43
 21
22.5
 31
2
  0
ARC
  5
A2D
330
A02
100
AcDbEntity
  8
Groove
100
AcDbCircle
 10
38
 20
22.5
 30
2
 40
5
100
AcDbArc
 50
0
 51
90
  0
LINE
  5
A2E
330
A02
100
AcDbEntity
  8
Groove
100
AcDbLine
 10
-38
 20
27.5
 30
0
 11
38
 21
27.5
 31
0
  0
LINE
  5
A2F
330
A02
100
AcDbEntity
  8
Groove
100
AcDbLine
 10
-38
 20
27.5
 30
0
 11
-38
 21
27.5
 31
2
  0
LINE
  5
A30
330
A02
100
AcDbEntity
  8
Groove
100
AcDbLine
 10
38
 20
27.5
 30
-1e-15
 11
38
 21
27.5
 31
2
  0
LINE
  5
A31
330
A02
100
AcDbEntity
  8
Groove
100
AcDbLine
 10
-38
 20
27.5
 30
2
 11
38
 21
27.5
 31
2
  0
ARC
  5
A32
330
A02
100
AcDbEntity
  8
Groove
100
AcDbCircle
 10
-38
 20
22.5
 30
-1.3e-16
 40
5
100
AcDbArc
 50
90
 51
180
  0
LINE
  5
A33
330
A02
100
AcDbEntity
  8
Groove
100
AcDbLine
 10
-38
 20
27.5
 30
0
 11
-38
 21
27.5
 31
2
  0
LINE
  5
A34
330
A02
100
AcDbEntity
  8
Groove
100
AcDbLine
 10
-43
 20
22.5
 30
0
 11
-43
 21
22.5
 31
2
  0
ARC
  5
A35
330
A02
100
AcDbEntity
  8
Groove
100
AcDbCircle
 10
-38
 20
22.5
 30
2
 40
5
100
AcDbArc
 50
90
 51
180
  0
LINE
  5
A36
330
A02
100
AcDbEntity
  8
Groove
100
AcDbLine
 10
-43
 20
14.9999
 30
0
 11
-43
 21
22.5
 31
0
  0
LINE
  5
A37
330
A02
100
AcDbEntity
  8
Groove
100
AcDbLine
 10
-43
 20
22.5
 30
0
 11
-43
 21
22.5
 31
2
  0
LINE
  5
A38
330
A02
100
AcDbEntity
  8
Groove
100
AcDbLine
 10
-43
 20
15
 30
2
 11
-43
 21
22.5
 31
2
  0
SPLINE
  5
A39
330
A02
100
AcDbEntity
  8
Groove
100
AcDbSpline
210
0
220
0
230
1
 70
8
 71
1
 72
4
 73
2
 74
0
 40
0.0833344
 40
0.0833344
 40
0.916667
 40
0.916667
 10
-43
 20
14.9999
 30
9.14935e-13
 10
-43
 20
15
 30
2
  0
ARC
  5
A3A
330
A02
100
AcDbEntity
  8
Groove
100
AcDbCircle
 10
-43
 20
7.5
 30
2
 40
7.5
100
AcDbArc
 50
-6.78518e-15
 51
90
  0
SPLINE
  5
A3B
330
A02
100
AcDbEntity
  8
Groove
100
AcDbSpline
210
0
220
0
230
1
 70
8
 71
1
 72
4
 73
2
 74
0
 40
0.0833344
 40
0.0833344
 40
0.916667
 40
0.916667
 10
-43
 20
14.9999
 30
9.14935e-13
 10
-43
 20
15
 30
2
  0
SPLINE
  5
A3C
330
A02
100
AcDbEntity
  8
Groove
100
AcDbSpline
210
0
220
0
230
1
 70
8
 71
3
 72
14
 73
10
 74
0
 40
0.497976
 40
0.497976
 40
0.497976
 40
0.497976
 40
0.717693
 40
0.717693
 40
0.717693
 40
0.862696
 40
0.862696
 40
0.862696
 40
1
 40
1
 40
1
 40
1
 10
-43
 20
14.9999
 30
7.84336e-17
 10
-41.272
 20
15.0153
 30
6.11541e-17
 10
-39.5474
 20
14.4086
 30
4.39081e-17
 10
-38.2101
 20
13.3142
 30
3.05346e-17
 10
-37.3256
 20
12.5957
 30
2.16891e-17
 10
-36.6087
 20
11.6724
 30
1.45209e-17
 10
-36.1323
 20
10.6371
 30
9.75659e-18
 10
-35.6797
 20
9.65749
 30
5.23022e-18
 10
-35.4428
 20
8.57912
 30
2.86211e-18
 10
-35.4436
 20
7.5
 30
2.8698e-18
  0
ARC
  5
A3D
330
A02
100
AcDbEntity
  8
Groove
100
AcDbCircle
 10
0
 20
7.5
 30
2
 40
35.4436
100
AcDbArc
 50
180
 51
180
  0
ARC
  5
A3E
330
A02
100
AcDbEntity
  8
Groove
100
AcDbCircle
 10
0
 20
7.5
 30
2
 40
35.4436
100
AcDbArc
 50
180
 51
180
  0
LINE
  5
A3F
330
A02
100
AcDbEntity
  8
Groove
100
AcDbLine
 10
-35.4436
 20
7.5
 30
-8.9653e-17
 11
-35.4436
 21
-7.5
 31
-8.9653e-17
  0
ARC
  5
A40
330
A02
100
AcDbEntity
  8
Groove
100
AcDbCircle
 10
0
 20
-7.5
 30
2
 40
35.4436
100
AcDbArc
 50
180
 51
180
  0
LINE
  5
A41
330
A02
100
AcDbEntity
  8
Groove
100
AcDbLine
 10
-35.5
 20
7.5
 30
2
 11
-35.5
 21
-7.5
 31
2
  0
ARC
  5
A42
330
A02
100
AcDbEntity
  8
Groove
100
AcDbCircle
 10
0
 20
-7.5
 30
2
 40
35.4436
100
AcDbArc
 50
180
 51
180
  0
SPLINE
  5
A43
330
A02
100
AcDbEntity
  8
Groove
100
AcDbSpline
210
0
220
0
230
1
 70
8
 71
3
 72
14
 73
10
 74
0
 40
0
 40
0
 40
0
 40
0
 40
0.115591
 40
0.115591
 40
0.115591
 40
0.334596
 40
0.334596
 40
0.334596
 40
0.502019
 40
0.502019
 40
0.502019
 40
0.502019
 10
-35.4436
 20
-7.5
 30
2.8698e-18
 10
-35.4432
 20
-8.40831
 30
2.86591e-18
 10
-35.6103
 20
-9.31631
 30
4.53657e-18
 10
-35.9338
 20
-10.165
 30
7.77211e-18
 10
-36.5423
 20
-11.7765
 30
1.38568e-17
 10
-37.7276
 20
-13.1603
 30
2.57096e-17
 10
-39.2256
 20
-14.0105
 30
4.06898e-17
 10
-40.3676
 20
-14.6646
 30
5.21097e-17
 10
-41.684
 20
-15.0097
 30
6.52733e-17
 10
-43
 20
-14.9999
 30
7.84336e-17
  0
SPLINE
  5
A44
330
A02
100
AcDbEntity
  8
Groove
100
AcDbSpline
210
0
220
0
230
1
 70
8
 71
1
 72
4
 73
2
 74
0
 40
0.0833328
 40
0.0833328
 40
0.916666
 40
0.916666
 10
-43
 20
-15
 30
2
 10
-43
 20
-14.9999
 30
9.50684e-13
  0
ARC
  5
A45
330
A02
100
AcDbEntity
  8
Groove
100
AcDbCircle
 10
-43
 20
-7.5
 30
2
 40
7.5
100
AcDbArc
 50
-90
 51
-2.03555e-14
  0
LINE
  5
A46
330
A02
100
AcDbEntity
  8
Groove
100
AcDbLine
 10
-43
 20
-22.5
 30
0
 11
-43
 21
-14.9999
 31
0
  0
SPLINE
  5
A47
330
A02
100
AcDbEntity
  8
Groove
100
AcDbSpline
210
0
220
0
230
1
 70
8
 71
1
 72
4
 73
2
 74
0
 40
0.0833328
 40
0.0833328
 40
0.916666
 40
0.916666
 10
-43
 20
-15
 30
2
 10
-43
 20
-14.9999
 30
9.50684e-13
  0
LINE
  5
A48
330
A02
100
AcDbEntity
  8
Groove
100
AcDbLine
 10
-43
 20
-22.5
 30
2
 11
-43
 21
-15
 31
2
  0
LINE
  5
A49
330
A02
100
AcDbEntity
  8
Groove
100
AcDbLine
 10
-43
 20
-22.5
 30
0
 11
-43
 21
-22.5
 31
2
  0
ARC
  5
A4A
330
A02
100
AcDbEntity
  8
Groove
100
AcDbCircle
 10
-38
 20
-22.5
 30
-4e-17
 40
5
100
AcDbArc
 50
180
 51
-90
  0
LINE
  5
A4B
330
A02
100
AcDbEntity
  8
Groove
100
AcDbLine
 10
-43
 20
-22.5
 30
0
 11
-43
 21
-22.5
 31
2
  0
LINE
  5
A4C
330
A02
100
AcDbEntity
  8
Groove
100
AcDbLine
 10
-38
 20
-27.5
 30
0
 11
-38
 21
-27.5
 31
2
  0
ARC
  5
A4D
330
A02
100
AcDbEntity
  8
Groove
100
AcDbCircle
 10
-38
 20
-22.5
 30
2
 40
5
100
AcDbArc
 50
180
 51
-90
  0
LINE
  5
A4E
330
A02
100
AcDbEntity
  8
Groove
100
AcDbLine
 10
38
 20
-27.5
 30
0
 11
-38
 21
-27.5
 31
0
  0
LINE
  5
A4F
330
A02
100
AcDbEntity
  8
Groove
100
AcDbLine
 10
38
 20
-27.5
 30
-1e-15
 11
38
 21
-27.5
 31
2
  0
LINE
  5
A50
330
A02
100
AcDbEntity
  8
Groove
100
AcDbLine
 10
-38
 20
-27.5
 30
0
 11
-38
 21
-27.5
 31
2
  0
LINE
  5
A51
330
A02
100
AcDbEntity
  8
Groove
100
AcDbLine
 10
38
 20
-27.5
 30
2
 11
-38
 21
-27.5
 31
2
  0
ARC
  5
A52
330
A02
100
AcDbEntity
  8
Groove
100
AcDbCircle
 10
38
 20
-22.5
 30
-6e-16
 40
5
100
AcDbArc
 50
-90
 51
0
  0
LINE
  5
A53
330
A02
100
AcDbEntity
  8
Groove
100
AcDbLine
 10
43
 20
-22.5
 30
-1e-15
 11
43
 21
-22.5
 31
2
  0
LINE
  5
A54
330
A02
100
AcDbEntity
  8
Groove
100
AcDbLine
 10
38
 20
-27.5
 30
-1e-15
 11
38
 21
-27.5
 31
2
  0
ARC
  5
A55
330
A02
100
AcDbEntity
  8
Groove
100
AcDbCircle
 10
38
 20
-22.5
 30
2
 40
5
100
AcDbArc
 50
-90
 51
0
  0
SPLINE
  5
A56
330
A02
100
AcDbEntity
  8
Groove
100
AcDbSpline
210
0
220
0
230
1
 70
8
 71
1
 72
4
 73
2
 74
0
 40
0.0909102
 40
0.0909102
 40
1
 40
1
 10
43
 20
-14.9999
 30
7.28417e-13
 10
43
 20
-15
 30
2
  0
LINE
  5
A57
330
A02
100
AcDbEntity
  8
Groove
100
AcDbLine
 10
43
 20
-14.9999
 30
0
 11
43
 21
-22.5
 31
0
  0
LINE
  5
A58
330
A02
100
AcDbEntity
  8
Groove
100
AcDbLine
 10
43
 20
-22.5
 30
-1e-15
 11
43
 21
-22.5
 31
2
  0
LINE
  5
A59
330
A02
100
AcDbEntity
  8
Groove
100
AcDbLine
 10
43
 20
-15
 30
2
 11
43
 21
-22.5
 31
2
  0
ARC
  5
A5A
330
A02
100
AcDbEntity
  8
Groove
100
AcDbCircle
 10
43
 20
-7.5
 30
2
 40
7.5
100
AcDbArc
 50
-180
 51
-90
  0
SPLINE
  5
A5B
330
A02
100
AcDbEntity
  8
Groove
100
AcDbSpline
210
0
220
0
230
1
 70
8
 71
1
 72
4
 73
2
 74
0
 40
0.0909102
 40
0.0909102
 40
1
 40
1
 10
43
 20
-14.9999
 30
7.28417e-13
 10
43
 20
-15
 30
2
  0
SPLINE
  5
A5C
330
A02
100
AcDbEntity
  8
Groove
100
AcDbSpline
210
0
220
0
230
1
 70
8
 71
2
 72
6
 73
3
 74
0
 40
0.421062
 40
0.421062
 40
0.421062
 40
0.502019
 40
0.502019
 40
0.502019
 10
41.1104
 20
-14.7705
 30
-7.6267e-16
 10
42.0406
 20
-15.0053
 30
-7.71972e-16
 10
43
 20
-14.9999
 30
-7.81566e-16
  0
SPLINE
  5
A5D
330
A02
100
AcDbEntity
  8
Groove
100
AcDbSpline
210
0
220
0
230
1
 70
8
 71
3
 72
17
 73
13
 74
0
 40
0
 40
0
 40
0
 40
0
 40
0.198881
 40
0.198881
 40
0.198881
 40
0.444932
 40
0.444932
 40
0.444932
 40
0.722466
 40
0.722466
 40
0.722466
 40
1
 40
1
 40
1
 40
1
 10
35.9146
 20
-10.8503
 30
-3.20535
 10
36.0598
 20
-10.9684
 30
-2.61753
 10
36.2505
 20
-11.2192
 30
-2.08133
 10
36.4947
 20
-11.5333
 30
-1.65054
 10
36.7957
 20
-11.9226
 30
-1.11386
 10
37.1823
 20
-12.394
 30
-0.745587
 10
37.6255
 20
-12.8157
 30
-0.510214
 10
38.1248
 20
-13.2951
 30
-0.243558
 10
38.6868
 20
-13.7136
 30
-0.129074
 10
39.2763
 20
-14.0411
 30
-0.0670705
 10
39.8665
 20
-14.3699
 30
-0.00689949
 10
40.483
 20
-14.6119
 30
-0.000718587
 10
41.1104
 20
-14.7705
 30
0
  0
SPLINE
  5
A5E
330
A02
100
AcDbEntity
  8
Groove
100
AcDbSpline
210
0
220
0
230
1
 70
8
 71
3
 72
11
 73
7
 74
0
 40
0
 40
0
 40
0
 40
0
 40
0.542394
 40
0.542394
 40
0.542394
 40
0.914261
 40
0.914261
 40
0.914261
 40
0.914261
 10
28.0698
 20
-7.5
 30
-19.7333
 10
30.3102
 20
-8.08633
 30
-16.8408
 10
32.1463
 20
-8.73243
 30
-13.6533
 10
33.565
 20
-9.41208
 30
-10.3004
 10
34.5387
 20
-9.87812
 30
-8.00129
 10
35.3171
 20
-10.36
 30
-5.62414
 10
35.9146
 20
-10.8503
 30
-3.20535
  0
ARC
  5
A5F
330
A02
100
AcDbEntity
  8
Groove
100
AcDbCircle
 10
0
 20
-7.5
 30
2
 40
35.5
100
AcDbArc
 50
0
 51
0
  0
SPLINE
  5
A60
330
A02
100
AcDbEntity
  8
Groove
100
AcDbSpline
210
0
220
0
230
1
 70
8
 71
3
 72
17
 73
13
 74
0
 40
0
 40
0
 40
0
 40
0
 40
0.198881
 40
0.198881
 40
0.198881
 40
0.444932
 40
0.444932
 40
0.444932
 40
0.722466
 40
0.722466
 40
0.722466
 40
1
 40
1
 40
1
 40
1
 10
35.9146
 20
-10.8503
 30
-3.20535
 10
36.0598
 20
-10.9684
 30
-2.61753
 10
36.2505
 20
-11.2192
 30
-2.08133
 10
36.4947
 20
-11.5333
 30
-1.65054
 10
36.7957
 20
-11.9226
 30
-1.11386
 10
37.1823
 20
-12.394
 30
-0.745587
 10
37.6255
 20
-12.8157
 30
-0.510214
 10
38.1248
 20
-13.2951
 30
-0.243558
 10
38.6868
 20
-13.7136
 30
-0.129074
 10
39.2763
 20
-14.0411
 30
-0.0670705
 10
39.8665
 20
-14.3699
 30
-0.00689949
 10
40.483
 20
-14.6119
 30
-0.000718587
 10
41.1104
 20
-14.7705
 30
0
  0
LINE
  5
A61
330
A02
100
AcDbEntity
  8
Groove
100
AcDbLine
 10
22.9203
 20
-10.8503
 30
-3.20535
 11
35.9146
 21
-10.8503
 31
-3.20535
  0
ELLIPSE
  5
A62
330
A02
100
AcDbEntity
  8
Groove
100
AcDbEllipse
 10
19
 20
-14.7705
 30
-4
 11
4
 21
4
 31
0
 40
0.707107
 41
-6.08319
 42
-4.71239
  0
LINE
  5
A63
330
A02
100
AcDbEntity
  8
Groove
100
AcDbLine
 10
19
 20
-14.7705
 30
0
 11
41.1104
 21
-14.7705
 31
0
  0
ELLIPSE
  5
A64
330
A02
100
AcDbEntity
  8
Groove
100
AcDbEllipse
 10
19
 20
-14.7705
 30
-4
 11
4
 21
4
 31
0
 40
0.707107
 41
-6.08319
 42
-4.71239
  0
LINE
  5
A65
330
A02
100
AcDbEntity
  8
Groove
100
AcDbLine
 10
19
 20
-2.54027
 30
-6.36275e-16
 11
19
 21
-14.7705
 31
2.05438e-15
  0
ELLIPSE
  5
A66
330
A02
100
AcDbEntity
  8
Groove
100
AcDbEllipse
 10
19
 20
-10.6892
 30
-4
 11
4
 21
-0.810811
 31
0
 40
0.980068
 41
1.3708
 42
1.5708
  0
ELLIPSE
  5
A67
330
A02
100
AcDbEntity
  8
Groove
100
AcDbEllipse
 10
19
 20
-2.54027
 30
-4
 11
4
 21
-4
 31
0
 40
0.707107
 41
4.71239
 42
0
  0
LINE
  5
A68
330
A02
100
AcDbEntity
  8
Groove
100
AcDbLine
 10
23
 20
-6.54027
 30
-4
 11
23
 21
-10.6892
 31
-4
  0
LINE
  5
A69
330
A02
100
AcDbEntity
  8
Groove
100
AcDbLine
 10
19
 20
-2.54027
 30
-1.78e-15
 11
35.4436
 21
-2.54027
 31
-1.78e-15
  0
SPLINE
  5
A6A
330
A02
100
AcDbEntity
  8
Groove
100
AcDbSpline
210
0
220
0
230
1
 70
8
 71
3
 72
17
 73
13
 74
0
 40
0
 40
0
 40
0
 40
0
 40
0.440576
 40
0.440576
 40
0.440576
 40
0.704263
 40
0.704263
 40
0.704263
 40
0.852132
 40
0.852132
 40
0.852132
 40
1
 40
1
 40
1
 40
1
 10
35.4436
 20
-2.54027
 30
8.88178e-16
 10
35.4425
 20
-3.42593
 30
-0.00192802
 10
35.4307
 20
-4.32265
 30
-0.288237
 10
35.38
 20
-5.0883
 30
-0.916564
 10
35.3488
 20
-5.54407
 30
-1.29289
 10
35.3015
 20
-5.95194
 30
-1.80172
 10
35.2219
 20
-6.22128
 30
-2.43468
 10
35.1774
 20
-6.37245
 30
-2.78909
 10
35.122
 20
-6.4775
 30
-3.18348
 10
35.0575
 20
-6.51897
 30
-3.58769
 10
34.9932
 20
-6.56126
 30
-3.9918
 10
34.9197
 20
-6.53993
 30
-4.40511
 10
34.8437
 20
-6.46054
 30
-4.79465
  0
LINE
  5
A6B
330
A02
100
AcDbEntity
  8
Groove
100
AcDbLine
 10
23
 20
-6.46054
 30
-4.79465
 11
34.8437
 21
-6.46054
 31
-4.79465
  0
ARC
  5
A6C
330
A02
100
AcDbEntity
  8
Groove
100
AcDbCircle
 10
23
 20
-2.54027
 30
-4
 40
4
100
AcDbArc
 50
-90
 51
-90
  0
ELLIPSE
  5
A6D
330
A02
100
AcDbEntity
  8
Groove
100
AcDbEllipse
 10
19
 20
-2.54027
 30
-4
 11
4
 21
-4
 31
0
 40
0.707107
 41
4.71239
 42
0
  0
LINE
  5
A6E
330
A02
100
AcDbEntity
  8
Groove
100
AcDbLine
 10
35.5
 20
7.5
 30
2
 11
35.5
 21
-7.5
 31
2
  0
ARC
  5
A6F
330
A02
100
AcDbEntity
  8
Groove
100
AcDbCircle
 10
0
 20
-7.5
 30
2
 40
35.5
100
AcDbArc
 50
0
 51
0
  0
ELLIPSE
  5
A70
330
A02
100
AcDbEntity
  8
Groove
100
AcDbEllipse
 10
0
 20
-11.9054
 30
2
 11
35.5
 21
-7.19595
 31
0
 40
0.980068
 41
-4.05354
 42
-4.04401
  0
LINE
  5
A71
330
A02
100
AcDbEntity
  8
Groove
100
AcDbLine
 10
27.8613
 20
-6.25
 30
-20
 11
27.8613
 21
-7.44595
 31
-20
  0
SPLINE
  5
A72
330
A02
100
AcDbEntity
  8
Groove
100
AcDbSpline
210
0
220
0
230
1
 70
8
 71
3
 72
35
 73
31
 74
0
 40
0
 40
0
 40
0
 40
0
 40
0.0632016
 40
0.0632016
 40
0.0632016
 40
0.177818
 40
0.177818
 40
0.177818
 40
0.269436
 40
0.269436
 40
0.269436
 40
0.375629
 40
0.375629
 40
0.375629
 40
0.500091
 40
0.500091
 40
0.500091
 40
0.62328
 40
0.62328
 40
0.62328
 40
0.728373
 40
0.728373
 40
0.728373
 40
0.822289
 40
0.822289
 40
0.822289
 40
0.901075
 40
0.901075
 40
0.901075
 40
1
 40
1
 40
1
 40
1
 10
27.8613
 20
-6.25
 30
-20
 10
28.1651
 20
-6.25076
 30
-19.6151
 10
28.4605
 20
-6.21386
 30
-19.2247
 10
28.7473
 20
-6.1393
 30
-18.8289
 10
29.2663
 20
-6.00363
 30
-18.1132
 10
29.7467
 20
-5.73223
 30
-17.3909
 10
30.1542
 20
-5.329
 30
-16.7344
 10
30.4804
 20
-5.00767
 30
-16.2093
 10
30.7599
 20
-4.60431
 30
-15.7285
 10
30.9877
 20
-4.14345
 30
-15.3209
 10
31.2521
 20
-3.60949
 30
-14.8477
 10
31.4478
 20
-3.00034
 30
-14.4731
 10
31.5823
 20
-2.35689
 30
-14.2114
 10
31.7397
 20
-1.60225
 30
-13.9041
 10
31.8146
 20
-0.800639
 30
-13.7499
 10
31.8149
 20
-1.9984e-15
 30
-13.75
 10
31.8146
 20
0.792548
 30
-13.7499
 10
31.7412
 20
1.58605
 30
-13.901
 10
31.587
 20
2.33396
 30
-14.2021
 10
31.4554
 20
2.97177
 30
-14.4586
 10
31.2637
 20
3.57636
 30
-14.8257
 10
31.005
 20
4.10821
 30
-15.2899
 10
30.774
 20
4.58373
 30
-15.7041
 10
30.4887
 20
4.99952
 30
-16.1959
 10
30.1542
 20
5.329
 30
-16.7344
 10
29.8737
 20
5.6059
 30
-17.1859
 10
29.5592
 20
5.82184
 30
-17.6689
 10
29.221
 20
5.97271
 30
-18.159
 10
28.7966
 20
6.16261
 30
-18.7745
 10
28.3357
 20
6.25021
 30
-19.3994
 10
27.8613
 20
6.25
 30
-20
  0
LINE
  5
A73
330
A02
100
AcDbEntity
  8
Groove
100
AcDbLine
 10
27.8613
 20
7.44595
 30
-20
 11
27.8613
 21
6.25
 31
-20
  0
ELLIPSE
  5
A74
330
A02
100
AcDbEntity
  8
Groove
100
AcDbEllipse
 10
0
 20
11.9054
 30
2
 11
35.5
 21
-7.19595
 31
0
 40
0.980068
 41
0.902413
 42
0.911948
  0
ARC
  5
A75
330
A02
100
AcDbEntity
  8
Groove
100
AcDbCircle
 10
0
 20
7.5
 30
2
 40
35.5
100
AcDbArc
 50
0
 51
0
  0
SPLINE
  5
A76
330
A02
100
AcDbEntity
  8
Groove
100
AcDbSpline
210
0
220
0
230
1
 70
8
 71
3
 72
17
 73
13
 74
0
 40
0
 40
0
 40
0
 40
0
 40
0.440576
 40
0.440576
 40
0.440576
 40
0.704263
 40
0.704263
 40
0.704263
 40
0.852132
 40
0.852132
 40
0.852132
 40
1
 40
1
 40
1
 40
1
 10
35.4436
 20
2.54027
 30
8.88178e-16
 10
35.4425
 20
3.42593
 30
-0.00192802
 10
35.4307
 20
4.32265
 30
-0.288237
 10
35.38
 20
5.0883
 30
-0.916564
 10
35.3488
 20
5.54407
 30
-1.29289
 10
35.3015
 20
5.95194
 30
-1.80172
 10
35.2219
 20
6.22128
 30
-2.43468
 10
35.1774
 20
6.37245
 30
-2.78909
 10
35.122
 20
6.4775
 30
-3.18348
 10
35.0575
 20
6.51897
 30
-3.58769
 10
34.9932
 20
6.56126
 30
-3.9918
 10
34.9197
 20
6.53993
 30
-4.40511
 10
34.8437
 20
6.46054
 30
-4.79465
  0
ELLIPSE
  5
A77
330
A02
100
AcDbEntity
  8
Groove
100
AcDbEllipse
 10
0
 20
7.83784
 30
2
 11
35.5
 21
-7.19595
 31
0
 40
0.980068
 41
1.26183
 42
1.37821
  0
SPLINE
  5
A78
330
A02
100
AcDbEntity
  8
Groove
100
AcDbSpline
210
0
220
0
230
1
 70
8
 71
3
 72
14
 73
10
 74
0
 40
0
 40
0
 40
0
 40
0
 40
0.261761
 40
0.261761
 40
0.261761
 40
0.437754
 40
0.437754
 40
0.437754
 40
1
 40
1
 40
1
 40
1
 10
33.819
 20
5.64973
 30
-8.79465
 10
33.6454
 20
5.53969
 30
-9.33885
 10
33.4726
 20
5.32031
 30
-9.83382
 10
33.3193
 20
5.03638
 30
-10.2504
 10
33.2158
 20
4.84388
 30
-10.5309
 10
33.122
 20
4.62727
 30
-10.7774
 10
33.038
 20
4.38657
 30
-10.9899
 10
32.77
 20
3.62056
 30
-11.6684
 10
32.6217
 20
2.6713
 30
-11.9995
 10
32.6228
 20
1.72946
 30
-12
  0
LINE
  5
A79
330
A02
100
AcDbEntity
  8
Groove
100
AcDbLine
 10
32.6228
 20
1.72946
 30
-12
 11
32.6228
 21
-1.72946
 31
-12
  0
SPLINE
  5
A7A
330
A02
100
AcDbEntity
  8
Groove
100
AcDbSpline
210
0
220
0
230
1
 70
8
 71
3
 72
14
 73
10
 74
0
 40
0
 40
0
 40
0
 40
0
 40
0.261761
 40
0.261761
 40
0.261761
 40
0.437754
 40
0.437754
 40
0.437754
 40
1
 40
1
 40
1
 40
1
 10
33.819
 20
-5.64973
 30
-8.79465
 10
33.6454
 20
-5.53969
 30
-9.33885
 10
33.4726
 20
-5.32031
 30
-9.83382
 10
33.3193
 20
-5.03638
 30
-10.2504
 10
33.2158
 20
-4.84388
 30
-10.5309
 10
33.122
 20
-4.62727
 30
-10.7774
 10
33.038
 20
-4.38657
 30
-10.9899
 10
32.77
 20
-3.62056
 30
-11.6684
 10
32.6217
 20
-2.6713
 30
-11.9995
 10
32.6228
 20
-1.72946
 30
-12
  0
ELLIPSE
  5
A7B
330
A02
100
AcDbEntity
  8
Groove
100
AcDbEllipse
 10
0
 20
-7.83784
 30
2
 11
35.5
 21
-7.19595
 31
0
 40
0.980068
 41
1.76338
 42
1.87976
  0
SPLINE
  5
A7C
330
A02
100
AcDbEntity
  8
Groove
100
AcDbSpline
210
0
220
0
230
1
 70
8
 71
3
 72
17
 73
13
 74
0
 40
0
 40
0
 40
0
 40
0
 40
0.440576
 40
0.440576
 40
0.440576
 40
0.704263
 40
0.704263
 40
0.704263
 40
0.852132
 40
0.852132
 40
0.852132
 40
1
 40
1
 40
1
 40
1
 10
35.4436
 20
-2.54027
 30
8.88178e-16
 10
35.4425
 20
-3.42593
 30
-0.00192802
 10
35.4307
 20
-4.32265
 30
-0.288237
 10
35.38
 20
-5.0883
 30
-0.916564
 10
35.3488
 20
-5.54407
 30
-1.29289
 10
35.3015
 20
-5.95194
 30
-1.80172
 10
35.2219
 20
-6.22128
 30
-2.43468
 10
35.1774
 20
-6.37245
 30
-2.78909
 10
35.122
 20
-6.4775
 30
-3.18348
 10
35.0575
 20
-6.51897
 30
-3.58769
 10
34.9932
 20
-6.56126
 30
-3.9918
 10
34.9197
 20
-6.53993
 30
-4.40511
 10
34.8437
 20
-6.46054
 30
-4.79465
  0
LINE
  5
A7D
330
A02
100
AcDbEntity
  8
Groove
100
AcDbLine
 10
35.4436
 20
2.54027
 30
-7.98525e-16
 11
35.4436
 21
-2.54027
 31
-7.98525e-16
  0
LINE
  5
A7E
330
A02
100
AcDbEntity
  8
Groove
100
AcDbLine
 10
19
 20
2.54027
 30
-8.9e-16
 11
35.4436
 21
2.54027
 31
-8.9e-16
  0
SPLINE
  5
A7F
330
A02
100
AcDbEntity
  8
Groove
100
AcDbSpline
210
0
220
0
230
1
 70
8
 71
3
 72
17
 73
13
 74
0
 40
0
 40
0
 40
0
 40
0
 40
0.440576
 40
0.440576
 40
0.440576
 40
0.704263
 40
0.704263
 40
0.704263
 40
0.852132
 40
0.852132
 40
0.852132
 40
1
 40
1
 40
1
 40
1
 10
35.4436
 20
2.54027
 30
8.88178e-16
 10
35.4425
 20
3.42593
 30
-0.00192802
 10
35.4307
 20
4.32265
 30
-0.288237
 10
35.38
 20
5.0883
 30
-0.916564
 10
35.3488
 20
5.54407
 30
-1.29289
 10
35.3015
 20
5.95194
 30
-1.80172
 10
35.2219
 20
6.22128
 30
-2.43468
 10
35.1774
 20
6.37245
 30
-2.78909
 10
35.122
 20
6.4775
 30
-3.18348
 10
35.0575
 20
6.51897
 30
-3.58769
 10
34.9932
 20
6.56126
 30
-3.9918
 10
34.9197
 20
6.53993
 30
-4.40511
 10
34.8437
 20
6.46054
 30
-4.79465
  0
LINE
  5
A80
330
A02
100
AcDbEntity
  8
Groove
100
AcDbLine
 10
23
 20
6.46054
 30
-4.79465
 11
34.8437
 21
6.46054
 31
-4.79465
  0
ARC
  5
A81
330
A02
100
AcDbEntity
  8
Groove
100
AcDbCircle
 10
23
 20
2.54027
 30
-4
 40
4
100
AcDbArc
 50
90
 51
90
  0
ELLIPSE
  5
A82
330
A02
100
AcDbEntity
  8
Groove
100
AcDbEllipse
 10
19
 20
2.54027
 30
-4
 11
-4
 21
-4
 31
0
 40
0.707107
 41
-3.14159
 42
-1.5708
  0
ELLIPSE
  5
A83
330
A02
100
AcDbEntity
  8
Groove
100
AcDbEllipse
 10
19
 20
14.7705
 30
-4
 11
4
 21
-4
 31
0
 40
0.707107
 41
4.71239
 42
6.08319
  0
LINE
  5
A84
330
A02
100
AcDbEntity
  8
Groove
100
AcDbLine
 10
19
 20
14.7705
 30
-2.79519e-16
 11
19
 21
2.54027
 31
2.41114e-15
  0
ELLIPSE
  5
A85
330
A02
100
AcDbEntity
  8
Groove
100
AcDbEllipse
 10
19
 20
10.6892
 30
-4
 11
4
 21
-0.810811
 31
0
 40
0.980068
 41
-4.71239
 42
-4.5124
  0
ELLIPSE
  5
A86
330
A02
100
AcDbEntity
  8
Groove
100
AcDbEllipse
 10
19
 20
2.54027
 30
-4
 11
-4
 21
-4
 31
0
 40
0.707107
 41
-3.14159
 42
-1.5708
  0
LINE
  5
A87
330
A02
100
AcDbEntity
  8
Groove
100
AcDbLine
 10
23
 20
10.6892
 30
-4
 11
23
 21
6.54027
 31
-4
  0
SPLINE
  5
A88
330
A02
100
AcDbEntity
  8
Groove
100
AcDbSpline
210
0
220
0
230
1
 70
8
 71
3
 72
17
 73
13
 74
0
 40
0
 40
0
 40
0
 40
0
 40
0.277143
 40
0.277143
 40
0.277143
 40
0.554285
 40
0.554285
 40
0.554285
 40
0.795823
 40
0.795823
 40
0.795823
 40
1
 40
1
 40
1
 40
1
 10
41.1104
 20
14.7705
 30
0
 10
40.4839
 20
14.6121
 30
-0.000714314
 10
39.8683
 20
14.3706
 30
-0.00688803
 10
39.2788
 20
14.0425
 30
-0.0668143
 10
38.69
 20
13.7157
 30
-0.128563
 10
38.1287
 20
13.2981
 30
-0.242559
 10
37.6297
 20
12.8197
 30
-0.507969
 10
37.1944
 20
12.4059
 30
-0.738409
 10
36.8132
 20
11.9443
 30
-1.09611
 10
36.5143
 20
11.5584
 30
-1.61628
 10
36.2607
 20
11.2327
 30
-2.05296
 10
36.0637
 20
10.9715
 30
-2.60181
 10
35.9146
 20
10.8503
 30
-3.20535
  0
LINE
  5
A89
330
A02
100
AcDbEntity
  8
Groove
100
AcDbLine
 10
22.9203
 20
10.8503
 30
-3.20535
 11
35.9146
 21
10.8503
 31
-3.20535
  0
ELLIPSE
  5
A8A
330
A02
100
AcDbEntity
  8
Groove
100
AcDbEllipse
 10
19
 20
14.7705
 30
-4
 11
4
 21
-4
 31
0
 40
0.707107
 41
4.71239
 42
6.08319
  0
LINE
  5
A8B
330
A02
100
AcDbEntity
  8
Groove
100
AcDbLine
 10
19
 20
14.7705
 30
0
 11
41.1104
 21
14.7705
 31
0
  0
ARC
  5
A8C
330
A02
100
AcDbEntity
  8
Groove
100
AcDbCircle
 10
43
 20
7.5
 30
2
 40
7.5
100
AcDbArc
 50
90
 51
180
  0
ARC
  5
A8D
330
A02
100
AcDbEntity
  8
Groove
100
AcDbCircle
 10
0
 20
7.5
 30
2
 40
35.5
100
AcDbArc
 50
0
 51
0
  0
SPLINE
  5
A8E
330
A02
100
AcDbEntity
  8
Groove
100
AcDbSpline
210
0
220
0
230
1
 70
8
 71
3
 72
11
 73
7
 74
0
 40
0
 40
0
 40
0
 40
0
 40
0.542394
 40
0.542394
 40
0.542394
 40
0.914261
 40
0.914261
 40
0.914261
 40
0.914261
 10
28.0698
 20
7.5
 30
-19.7333
 10
30.3102
 20
8.08633
 30
-16.8408
 10
32.1463
 20
8.73243
 30
-13.6533
 10
33.565
 20
9.41208
 30
-10.3004
 10
34.5387
 20
9.87812
 30
-8.00129
 10
35.3171
 20
10.36
 30
-5.62414
 10
35.9146
 20
10.8503
 30
-3.20535
  0
SPLINE
  5
A8F
330
A02
100
AcDbEntity
  8
Groove
100
AcDbSpline
210
0
220
0
230
1
 70
8
 71
3
 72
17
 73
13
 74
0
 40
0
 40
0
 40
0
 40
0
 40
0.277143
 40
0.277143
 40
0.277143
 40
0.554285
 40
0.554285
 40
0.554285
 40
0.795823
 40
0.795823
 40
0.795823
 40
1
 40
1
 40
1
 40
1
 10
41.1104
 20
14.7705
 30
0
 10
40.4839
 20
14.6121
 30
-0.000714314
 10
39.8683
 20
14.3706
 30
-0.00688803
 10
39.2788
 20
14.0425
 30
-0.0668143
 10
38.69
 20
13.7157
 30
-0.128563
 10
38.1287
 20
13.2981
 30
-0.242559
 10
37.6297
 20
12.8197
 30
-0.507969
 10
37.1944
 20
12.4059
 30
-0.738409
 10
36.8132
 20
11.9443
 30
-1.09611
 10
36.5143
 20
11.5584
 30
-1.61628
 10
36.2607
 20
11.2327
 30
-2.05296
 10
36.0637
 20
10.9715
 30
-2.60181
 10
35.9146
 20
10.8503
 30
-3.20535
  0
SPLINE
  5
A90
330
A02
100
AcDbEntity
  8
Groove
100
AcDbSpline
210
0
220
0
230
1
 70
8
 71
2
 72
6
 73
3
 74
0
 40
0.497976
 40
0.497976
 40
0.497976
 40
0.578936
 40
0.578936
 40
0.578936
 10
43
 20
14.9999
 30
-7.81566e-16
 10
42.0406
 20
15.0053
 30
-7.71973e-16
 10
41.1104
 20
14.7705
 30
-7.6267e-16
  0
SPLINE
  5
A91
330
A02
100
AcDbEntity
  8
Groove
100
AcDbSpline
210
0
220
0
230
1
 70
8
 71
1
 72
4
 73
2
 74
0
 40
0.0909102
 40
0.0909102
 40
1
 40
1
 10
43
 20
14.9999
 30
7.19313e-13
 10
43
 20
15
 30
2
  0
LINE
  5
A92
330
A02
100
AcDbEntity
  8
Groove
100
AcDbLine
 10
43
 20
22.5
 30
-1.108e-14
 11
43
 21
14.9999
 31
-9.42997e-15
  0
SPLINE
  5
A93
330
A02
100
AcDbEntity
  8
Groove
100
AcDbSpline
210
0
220
0
230
1
 70
8
 71
1
 72
4
 73
2
 74
0
 40
0.0909102
 40
0.0909102
 40
1
 40
1
 10
43
 20
14.9999
 30
7.19313e-13
 10
43
 20
15
 30
2
  0
LINE
  5
A94
330
A02
100
AcDbEntity
  8
Groove
100
AcDbLine
 10
43
 20
22.5
 30
2
 11
43
 21
15
 31
2
  0
LINE
  5
A95
330
A02
100
AcDbEntity
  8
Groove
100
AcDbLine
 10
43
 20
22.5
 30
-1e-15
 11
43
 21
22.5
 31
2
  0
CIRCLE
  5
A96
330
A02
100
AcDbEntity
  8
Groove
100
AcDbCircle
 10
35
 20
-19.5
 40
3
  0
LINE
  5
A97
330
A02
100
AcDbEntity
  8
Groove
100
AcDbLine
 10
38
 20
-19.5
 30
-6.1e-16
 11
38
 21
-19.5
 31
2
  0
CIRCLE
  5
A98
330
A02
100
AcDbEntity
  8
Groove
100
AcDbCircle
 10
35
 20
-19.5
 40
3
  0
LINE
  5
A99
330
A02
100
AcDbEntity
  8
Groove
100
AcDbLine
 10
38
 20
-19.5
 30
-6.1e-16
 11
38
 21
-19.5
 31
2
  0
LINE
  5
A9A
330
A02
100
AcDbEntity
  8
Groove
100
AcDbLine
 10
12.5
 20
-23
 30
2
 11
-12.5
 21
-23
 31
2
  0
LINE
  5
A9B
330
A02
100
AcDbEntity
  8
Groove
100
AcDbLine
 10
-12.5
 20
-23
 30
2
 11
-12.5
 21
-23
 31
-4.44089e-16
  0
LINE
  5
A9C
330
A02
100
AcDbEntity
  8
Groove
100
AcDbLine
 10
-12.5
 20
-23
 30
-2.10328e-16
 11
12.5
 21
-23
 31
-4.60328e-16
  0
LINE
  5
A9D
330
A02
100
AcDbEntity
  8
Groove
100
AcDbLine
 10
12.5
 20
-23
 30
2
 11
12.5
 21
-23
 31
-4.44089e-16
  0
ARC
  5
A9E
330
A02
100
AcDbEntity
  8
Groove
100
AcDbCircle
 10
-12.5
 20
-24
 30
2
 40
1
100
AcDbArc
 50
90
 51
-90
  0
LINE
  5
A9F
330
A02
100
AcDbEntity
  8
Groove
100
AcDbLine
 10
-12.5
 20
-25
 30
2
 11
-12.5
 21
-25
 31
-4.44089e-16
  0
ARC
  5
AA0
330
A02
100
AcDbEntity
  8
Groove
100
AcDbCircle
 10
-12.5
 20
-24
 30
0
 40
1
100
AcDbArc
 50
90
 51
-90
  0
LINE
  5
AA1
330
A02
100
AcDbEntity
  8
Groove
100
AcDbLine
 10
-12.5
 20
-23
 30
2
 11
-12.5
 21
-23
 31
-4.44089e-16
  0
ARC
  5
AA2
330
A02
100
AcDbEntity
  8
Groove
100
AcDbCircle
 10
12.5
 20
-24
 30
2
 40
1
100
AcDbArc
 50
-90
 51
90
  0
LINE
  5
AA3
330
A02
100
AcDbEntity
  8
Groove
100
AcDbLine
 10
12.5
 20
-23
 30
2
 11
12.5
 21
-23
 31
-4.44089e-16
  0
ARC
  5
AA4
330
A02
100
AcDbEntity
  8
Groove
100
AcDbCircle
 10
12.5
 20
-24
 30
-4.44089e-16
 40
1
100
AcDbArc
 50
-90
 51
90
  0
LINE
  5
AA5
330
A02
100
AcDbEntity
  8
Groove
100
AcDbLine
 10
12.5
 20
-25
 30
2
 11
12.5
 21
-25
 31
-4.44089e-16
  0
LINE
  5
AA6
330
A02
100
AcDbEntity
  8
Groove
100
AcDbLine
 10
-12.5
 20
-25
 30
2
 11
12.5
 21
-25
 31
2
  0
LINE
  5
AA7
330
A02
100
AcDbEntity
  8
Groove
100
AcDbLine
 10
12.5
 20
-25
 30
2
 11
12.5
 21
-25
 31
-4.44089e-16
  0
LINE
  5
AA8
330
A02
100
AcDbEntity
  8
Groove
100
AcDbLine
 10
12.5
 20
-25
 30
-3.63283e-16
 11
-12.5
 21
-25
 31
-1.13283e-16
  0
LINE
  5
AA9
330
A02
100
AcDbEntity
  8
Groove
100
AcDbLine
 10
-12.5
 20
-25
 30
2
 11
-12.5
 21
-25
 31
-4.44089e-16
  0
CIRCLE
  5
AAA
330
A02
100
AcDbEntity
  8
Groove
100
AcDbCircle
 10
-35
 20
-19.5
 40
3
  0
LINE
  5
AAB
330
A02
100
AcDbEntity
  8
Groove
100
AcDbLine
 10
-32
 20
-19.5
 30
-9e-17
 11
-32
 21
-19.5
 31
2
  0
CIRCLE
  5
AAC
330
A02
100
AcDbEntity
  8
Groove
100
AcDbCircle
 10
-35
 20
-19.5
 40
3
  0
LINE
  5
AAD
330
A02
100
AcDbEntity
  8
Groove
100
AcDbLine
 10
-32
 20
-19.5
 30
-9e-17
 11
-32
 21
-19.5
 31
2
  0
CIRCLE
  5
AAE
330
A02
100
AcDbEntity
  8
Groove
100
AcDbCircle
 10
35
 20
19.5
 40
3
  0
LINE
  5
AAF
330
A02
100
AcDbEntity
  8
Groove
100
AcDbLine
 10
38
 20
19.5
 30
-6.9e-16
 11
38
 21
19.5
 31
2
  0
CIRCLE
  5
AB0
330
A02
100
AcDbEntity
  8
Groove
100
AcDbCircle
 10
35
 20
19.5
 40
3
  0
LINE
  5
AB1
330
A02
100
AcDbEntity
  8
Groove
100
AcDbLine
 10
38
 20
19.5
 30
-6.9e-16
 11
38
 21
19.5
 31
2
  0
LINE
  5
AB2
330
A02
100
AcDbEntity
  8
Groove
100
AcDbLine
 10
12.5
 20
25
 30
2
 11
-12.5
 21
25
 31
2
  0
LINE
  5
AB3
330
A02
100
AcDbEntity
  8
Groove
100
AcDbLine
 10
-12.5
 20
25
 30
2
 11
-12.5
 21
25
 31
-4.44089e-16
  0
LINE
  5
AB4
330
A02
100
AcDbEntity
  8
Groove
100
AcDbLine
 10
-12.5
 20
25
 30
-2.10328e-16
 11
12.5
 21
25
 31
-4.60328e-16
  0
LINE
  5
AB5
330
A02
100
AcDbEntity
  8
Groove
100
AcDbLine
 10
12.5
 20
25
 30
2
 11
12.5
 21
25
 31
-4.44089e-16
  0
ARC
  5
AB6
330
A02
100
AcDbEntity
  8
Groove
100
AcDbCircle
 10
-12.5
 20
24
 30
2
 40
1
100
AcDbArc
 50
90
 51
-90
  0
LINE
  5
AB7
330
A02
100
AcDbEntity
  8
Groove
100
AcDbLine
 10
-12.5
 20
23
 30
2
 11
-12.5
 21
23
 31
0
  0
ARC
  5
AB8
330
A02
100
AcDbEntity
  8
Groove
100
AcDbCircle
 10
-12.5
 20
24
 30
0
 40
1
100
AcDbArc
 50
90
 51
-90
  0
LINE
  5
AB9
330
A02
100
AcDbEntity
  8
Groove
100
AcDbLine
 10
-12.5
 20
25
 30
2
 11
-12.5
 21
25
 31
-4.44089e-16
  0
ARC
  5
ABA
330
A02
100
AcDbEntity
  8
Groove
100
AcDbCircle
 10
12.5
 20
24
 30
2
 40
1
100
AcDbArc
 50
-90
 51
90
  0
LINE
  5
ABB
330
A02
100
AcDbEntity
  8
Groove
100
AcDbLine
 10
12.5
 20
25
 30
2
 11
12.5
 21
25
 31
-4.44089e-16
  0
ARC
  5
ABC
330
A02
100
AcDbEntity
  8
Groove
100
AcDbCircle
 10
12.5
 20
24
 30
-4.44089e-16
 40
1
100
AcDbArc
 50
-90
 51
90
  0
LINE
  5
ABD
330
A02
100
AcDbEntity
  8
Groove
100
AcDbLine
 10
12.5
 20
23
 30
2
 11
12.5
 21
23
 31
-4.44089e-16
  0
LINE
  5
ABE
330
A02
100
AcDbEntity
  8
Groove
100
AcDbLine
 10
-12.5
 20
23
 30
2
 11
12.5
 21
23
 31
2
  0
LINE
  5
ABF
330
A02
100
AcDbEntity
  8
Groove
100
AcDbLine
 10
12.5
 20
23
 30
2
 11
12.5
 21
23
 31
-4.44089e-16
  0
LINE
  5
AC0
330
A02
100
AcDbEntity
  8
Groove
100
AcDbLine
 10
12.5
 20
23
 30
-3.63283e-16
 11
-12.5
 21
23
 31
-1.13283e-16
  0
LINE
  5
AC1
330
A02
100
AcDbEntity
  8
Groove
100
AcDbLine
 10
-12.5
 20
23
 30
2
 11
-12.5
 21
23
 31
0
  0
CIRCLE
  5
AC2
330
A02
100
AcDbEntity
  8
Groove
100
AcDbCircle
 10
-35
 20
19.5
 40
3
  0
LINE
  5
AC3
330
A02
100
AcDbEntity
  8
Groove
100
AcDbLine
 10
-32
 20
19.5
 30
-1.7e-16
 11
-32
 21
19.5
 31
2
  0
CIRCLE
  5
AC4
330
A02
100
AcDbEntity
  8
Groove
100
AcDbCircle
 10
-35
 20
19.5
 40
3
  0
LINE
  5
AC5
330
A02
100
AcDbEntity
  8
Groove
100
AcDbLine
 10
-32
 20
19.5
 30
-1.7e-16
 11
-32
 21
19.5
 31
2
  0
LINE
  5
AC6
330
A02
100
AcDbEntity
  8
Groove
100
AcDbLine
 10
-38
 20
27.5
 30
2
 11
38
 21
27.5
 31
2
  0
ARC
  5
AC7
330
A02
100
AcDbEntity
  8
Groove
100
AcDbCircle
 10
38
 20
22.5
 30
2
 40
5
100
AcDbArc
 50
0
 51
90
  0
LINE
  5
AC8
330
A02
100
AcDbEntity
  8
Groove
100
AcDbLine
 10
43
 20
22.5
 30
2
 11
43
 21
15
 31
2
  0
ARC
  5
AC9
330
A02
100
AcDbEntity
  8
Groove
100
AcDbCircle
 10
43
 20
7.5
 30
2
 40
7.5
100
AcDbArc
 50
90
 51
180
  0
LINE
  5
ACA
330
A02
100
AcDbEntity
  8
Groove
100
AcDbLine
 10
35.5
 20
7.5
 30
2
 11
35.5
 21
-7.5
 31
2
  0
ARC
  5
ACB
330
A02
100
AcDbEntity
  8
Groove
100
AcDbCircle
 10
43
 20
-7.5
 30
2
 40
7.5
100
AcDbArc
 50
-180
 51
-90
  0
LINE
  5
ACC
330
A02
100
AcDbEntity
  8
Groove
100
AcDbLine
 10
43
 20
-15
 30
2
 11
43
 21
-22.5
 31
2
  0
ARC
  5
ACD
330
A02
100
AcDbEntity
  8
Groove
100
AcDbCircle
 10
38
 20
-22.5
 30
2
 40
5
100
AcDbArc
 50
-90
 51
0
  0
LINE
  5
ACE
330
A02
100
AcDbEntity
  8
Groove
100
AcDbLine
 10
38
 20
-27.5
 30
2
 11
-38
 21
-27.5
 31
2
  0
ARC
  5
ACF
330
A02
100
AcDbEntity
  8
Groove
100
AcDbCircle
 10
-38
 20
-22.5
 30
2
 40
5
100
AcDbArc
 50
180
 51
-90
  0
LINE
  5
AD0
330
A02
100
AcDbEntity
  8
Groove
100
AcDbLine
 10
-43
 20
-22.5
 30
2
 11
-43
 21
-15
 31
2
  0
ARC
  5
AD1
330
A02
100
AcDbEntity
  8
Groove
100
AcDbCircle
 10
-43
 20
-7.5
 30
2
 40
7.5
100
AcDbArc
 50
-90
 51
-2.03555e-14
  0
LINE
  5
AD2
330
A02
100
AcDbEntity
  8
Groove
100
AcDbLine
 10
-35.5
 20
7.5
 30
2
 11
-35.5
 21
-7.5
 31
2
  0
ARC
  5
AD3
330
A02
100
AcDbEntity
  8
Groove
100
AcDbCircle
 10
-43
 20
7.5
 30
2
 40
7.5
100
AcDbArc
 50
-6.78518e-15
 51
90
  0
LINE
  5
AD4
330
A02
100
AcDbEntity
  8
Groove
100
AcDbLine
 10
-43
 20
15
 30
2
 11
-43
 21
22.5
 31
2
  0
ARC
  5
AD5
330
A02
100
AcDbEntity
  8
Groove
100
AcDbCircle
 10
-38
 20
22.5
 30
2
 40
5
100
AcDbArc
 50
90
 51
180
  0
CIRCLE
  5
AD6
330
A02
100
AcDbEntity
  8
Groove
100
AcDbCircle
 10
-35
 20
-19.5
 40
3
  0
ARC
  5
AD7
330
A02
100
AcDbEntity
  8
Groove
100
AcDbCircle
 10
-12.5
 20
-24
 30
2
 40
1
100
AcDbArc
 50
90
 51
-90
  0
LINE
  5
AD8
330
A02
100
AcDbEntity
  8
Groove
100
AcDbLine
 10
12.5
 20
-23
 30
2
 11
-12.5
 21
-23
 31
2
  0
LINE
  5
AD9
330
A02
100
AcDbEntity
  8
Groove
100
AcDbLine
 10
-12.5
 20
-25
 30
2
 11
12.5
 21
-25
 31
2
  0
ARC
  5
ADA
330
A02
100
AcDbEntity
  8
Groove
100
AcDbCircle
 10
12.5
 20
-24
 30
2
 40
1
100
AcDbArc
 50
-90
 51
90
  0
CIRCLE
  5
ADB
330
A02
100
AcDbEntity
  8
Groove
100
AcDbCircle
 10
35
 20
-19.5
 40
3
  0
CIRCLE
  5
ADC
330
A02
100
AcDbEntity
  8
Groove
100
AcDbCircle
 10
-35
 20
19.5
 40
3
  0
ARC
  5
ADD
330
A02
100
AcDbEntity
  8
Groove
100
AcDbCircle
 10
-12.5
 20
24
 30
2
 40
1
100
AcDbArc
 50
90
 51
-90
  0
LINE
  5
ADE
330
A02
100
AcDbEntity
  8
Groove
100
AcDbLine
 10
12.5
 20
25
 30
2
 11
-12.5
 21
25
 31
2
  0
LINE
  5
ADF
330
A02
100
AcDbEntity
  8
Groove
100
AcDbLine
 10
-12.5
 20
23
 30
2
 11
12.5
 21
23
 31
2
  0
ARC
  5
AE0
330
A02
100
AcDbEntity
  8
Groove
100
AcDbCircle
 10
12.5
 20
24
 30
2
 40
1
100
AcDbArc
 50
-90
 51
90
  0
CIRCLE
  5
AE1
330
A02
100
AcDbEntity
  8
Groove
100
AcDbCircle
 10
35
 20
19.5
 40
3
  0
ELLIPSE
  5
AE2
330
A02
100
AcDbEntity
  8
Groove
100
AcDbEllipse
 10
19
 20
-10.6892
 30
-4
 11
4
 21
-0.810811
 31
0
 40
0.980068
 41
1.3708
 42
1.5708
  0
LINE
  5
AE3
330
A02
100
AcDbEntity
  8
Groove
100
AcDbLine
 10
22.9203
 20
-10.8503
 30
-3.20535
 11
35.9146
 21
-10.8503
 31
-3.20535
  0
SPLINE
  5
AE4
330
A02
100
AcDbEntity
  8
Groove
100
AcDbSpline
210
0
220
0
230
1
 70
8
 71
3
 72
11
 73
7
 74
0
 40
0
 40
0
 40
0
 40
0
 40
0.542394
 40
0.542394
 40
0.542394
 40
0.914261
 40
0.914261
 40
0.914261
 40
0.914261
 10
28.0698
 20
-7.5
 30
-19.7333
 10
30.3102
 20
-8.08633
 30
-16.8408
 10
32.1463
 20
-8.73243
 30
-13.6533
 10
33.565
 20
-9.41208
 30
-10.3004
 10
34.5387
 20
-9.87812
 30
-8.00129
 10
35.3171
 20
-10.36
 30
-5.62414
 10
35.9146
 20
-10.8503
 30
-3.20535
  0
ELLIPSE
  5
AE5
330
A02
100
AcDbEntity
  8
Groove
100
AcDbEllipse
 10
0
 20
-11.9054
 30
2
 11
35.5
 21
-7.19595
 31
0
 40
0.980068
 41
-4.05354
 42
-4.04401
  0
LINE
  5
AE6
330
A02
100
AcDbEntity
  8
Groove
100
AcDbLine
 10
27.8613
 20
-7.44595
 30
-20
 11
23
 21
-7.44595
 31
-20
  0
LINE
  5
AE7
330
A02
100
AcDbEntity
  8
Groove
100
AcDbLine
 10
23
 20
-7.44595
 30
-20
 11
23
 21
-10.6892
 31
-4
  0
LINE
  5
AE8
330
A02
100
AcDbEntity
  8
Groove
100
AcDbLine
 10
23
 20
7.44595
 30
-20
 11
23
 21
10.6892
 31
-4
  0
LINE
  5
AE9
330
A02
100
AcDbEntity
  8
Groove
100
AcDbLine
 10
23
 20
10.6892
 30
-4
 11
23
 21
6.54027
 31
-4
  0
LINE
  5
AEA
330
A02
100
AcDbEntity
  8
Groove
100
AcDbLine
 10
23
 20
7.44595
 30
-20
 11
23
 21
6.25
 31
-20
  0
ARC
  5
AEB
330
A02
100
AcDbEntity
  8
Groove
100
AcDbCircle
 10
23
 20
2.54027
 30
-4
 40
4
100
AcDbArc
 50
90
 51
90
  0
ARC
  5
AEC
330
A02
100
AcDbEntity
  8
Groove
100
AcDbCircle
 10
23
 20
0
 30
-20
 40
6.25
100
AcDbArc
 50
90
 51
-90
  0
LINE
  5
AED
330
A02
100
AcDbEntity
  8
Groove
100
AcDbLine
 10
23
 20
5.64973
 30
-8.79465
 11
23
 21
6.46054
 31
-4.79465
  0
LINE
  5
AEE
330
A02
100
AcDbEntity
  8
Groove
100
AcDbLine
 10
23
 20
-6.25
 30
-20
 11
23
 21
-7.44595
 31
-20
  0
ARC
  5
AEF
330
A02
100
AcDbEntity
  8
Groove
100
AcDbCircle
 10
23
 20
1.72946
 30
-8
 40
3.92027
100
AcDbArc
 50
90
 51
90
  0
LINE
  5
AF0
330
A02
100
AcDbEntity
  8
Groove
100
AcDbLine
 10
23
 20
-7.44595
 30
-20
 11
23
 21
-10.6892
 31
-4
  0
LINE
  5
AF1
330
A02
100
AcDbEntity
  8
Groove
100
AcDbLine
 10
23
 20
-1.72946
 30
-12
 11
23
 21
1.72946
 31
-12
  0
LINE
  5
AF2
330
A02
100
AcDbEntity
  8
Groove
100
AcDbLine
 10
23
 20
-6.54027
 30
-4
 11
23
 21
-10.6892
 31
-4
  0
ARC
  5
AF3
330
A02
100
AcDbEntity
  8
Groove
100
AcDbCircle
 10
23
 20
-1.72946
 30
-8
 40
3.92027
100
AcDbArc
 50
-90
 51
-90
  0
ARC
  5
AF4
330
A02
100
AcDbEntity
  8
Groove
100
AcDbCircle
 10
23
 20
-2.54027
 30
-4
 40
4
100
AcDbArc
 50
-90
 51
-90
  0
LINE
  5
AF5
330
A02
100
AcDbEntity
  8
Groove
100
AcDbLine
 10
23
 20
-6.46054
 30
-4.79465
 11
23
 21
-5.64973
 31
-8.79465
  0
LINE
  5
AF6
330
A02
100
AcDbEntity
  8
Groove
100
AcDbLine
 10
23
 20
-6.46054
 30
-4.79465
 11
23
 21
-5.64973
 31
-8.79465
  0
LINE
  5
AF7
330
A02
100
AcDbEntity
  8
Groove
100
AcDbLine
 10
23
 20
-5.64973
 30
-8.79465
 11
33.819
 21
-5.64973
 31
-8.79465
  0
ELLIPSE
  5
AF8
330
A02
100
AcDbEntity
  8
Groove
100
AcDbEllipse
 10
0
 20
-7.83784
 30
2
 11
35.5
 21
-7.19595
 31
0
 40
0.980068
 41
1.76338
 42
1.87976
  0
LINE
  5
AF9
330
A02
100
AcDbEntity
  8
Groove
100
AcDbLine
 10
23
 20
-6.46054
 30
-4.79465
 11
34.8437
 21
-6.46054
 31
-4.79465
  0
LINE
  5
AFA
330
A02
100
AcDbEntity
  8
Groove
100
AcDbLine
 10
23
 20
-6.25
 30
-20
 11
23
 21
-7.44595
 31
-20
  0
LINE
  5
AFB
330
A02
100
AcDbEntity
  8
Groove
100
AcDbLine
 10
27.8613
 20
-7.44595
 30
-20
 11
23
 21
-7.44595
 31
-20
  0
LINE
  5
AFC
330
A02
100
AcDbEntity
  8
Groove
100
AcDbLine
 10
27.8613
 20
-6.25
 30
-20
 11
27.8613
 21
-7.44595
 31
-20
  0
LINE
  5
AFD
330
A02
100
AcDbEntity
  8
Groove
100
AcDbLine
 10
23
 20
-6.25
 30
-20
 11
27.8613
 21
-6.25
 31
-20
  0
ARC
  5
AFE
330
A02
100
AcDbEntity
  8
Groove
100
AcDbCircle
 10
23
 20
0
 30
-20
 40
6.25
100
AcDbArc
 50
90
 51
-90
  0
LINE
  5
AFF
330
A02
100
AcDbEntity
  8
Groove
100
AcDbLine
 10
27.8613
 20
6.25
 30
-20
 11
23
 21
6.25
 31
-20
  0
SPLINE
  5
B00
330
A02
100
AcDbEntity
  8
Groove
100
AcDbSpline
210
0
220
0
230
1
 70
8
 71
3
 72
35
 73
31
 74
0
 40
0
 40
0
 40
0
 40
0
 40
0.0632016
 40
0.0632016
 40
0.0632016
 40
0.177818
 40
0.177818
 40
0.177818
 40
0.269436
 40
0.269436
 40
0.269436
 40
0.375629
 40
0.375629
 40
0.375629
 40
0.500091
 40
0.500091
 40
0.500091
 40
0.62328
 40
0.62328
 40
0.62328
 40
0.728373
 40
0.728373
 40
0.728373
 40
0.822289
 40
0.822289
 40
0.822289
 40
0.901075
 40
0.901075
 40
0.901075
 40
1
 40
1
 40
1
 40
1
 10
27.8613
 20
-6.25
 30
-20
 10
28.1651
 20
-6.25076
 30
-19.6151
 10
28.4605
 20
-6.21386
 30
-19.2247
 10
28.7473
 20
-6.1393
 30
-18.8289
 10
29.2663
 20
-6.00363
 30
-18.1132
 10
29.7467
 20
-5.73223
 30
-17.3909
 10
30.1542
 20
-5.329
 30
-16.7344
 10
30.4804
 20
-5.00767
 30
-16.2093
 10
30.7599
 20
-4.60431
 30
-15.7285
 10
30.9877
 20
-4.14345
 30
-15.3209
 10
31.2521
 20
-3.60949
 30
-14.8477
 10
31.4478
 20
-3.00034
 30
-14.4731
 10
31.5823
 20
-2.35689
 30
-14.2114
 10
31.7397
 20
-1.60225
 30
-13.9041
 10
31.8146
 20
-0.800639
 30
-13.7499
 10
31.8149
 20
-1.9984e-15
 30
-13.75
 10
31.8146
 20
0.792548
 30
-13.7499
 10
31.7412
 20
1.58605
 30
-13.901
 10
31.587
 20
2.33396
 30
-14.2021
 10
31.4554
 20
2.97177
 30
-14.4586
 10
31.2637
 20
3.57636
 30
-14.8257
 10
31.005
 20
4.10821
 30
-15.2899
 10
30.774
 20
4.58373
 30
-15.7041
 10
30.4887
 20
4.99952
 30
-16.1959
 10
30.1542
 20
5.329
 30
-16.7344
 10
29.8737
 20
5.6059
 30
-17.1859
 10
29.5592
 20
5.82184
 30
-17.6689
 10
29.221
 20
5.97271
 30
-18.159
 10
28.7966
 20
6.16261
 30
-18.7745
 10
28.3357
 20
6.25021
 30
-19.3994
 10
27.8613
 20
6.25
 30
-20
  0
LINE
  5
B01
330
A02
100
AcDbEntity
  8
Groove
100
AcDbLine
 10
23
 20
-6.25
 30
-20
 11
27.8613
 21
-6.25
 31
-20
  0
LINE
  5
B02
330
A02
100
AcDbEntity
  8
Groove
100
AcDbLine
 10
27.8613
 20
7.44595
 30
-20
 11
23
 21
7.44595
 31
-20
  0
LINE
  5
B03
330
A02
100
AcDbEntity
  8
Groove
100
AcDbLine
 10
23
 20
7.44595
 30
-20
 11
23
 21
6.25
 31
-20
  0
LINE
  5
B04
330
A02
100
AcDbEntity
  8
Groove
100
AcDbLine
 10
27.8613
 20
6.25
 30
-20
 11
23
 21
6.25
 31
-20
  0
LINE
  5
B05
330
A02
100
AcDbEntity
  8
Groove
100
AcDbLine
 10
27.8613
 20
7.44595
 30
-20
 11
27.8613
 21
6.25
 31
-20
  0
ELLIPSE
  5
B06
330
A02
100
AcDbEntity
  8
Groove
100
AcDbEllipse
 10
19
 20
10.6892
 30
-4
 11
4
 21
-0.810811
 31
0
 40
0.980068
 41
-4.71239
 42
-4.5124
  0
LINE
  5
B07
330
A02
100
AcDbEntity
  8
Groove
100
AcDbLine
 10
22.9203
 20
10.8503
 30
-3.20535
 11
35.9146
 21
10.8503
 31
-3.20535
  0
SPLINE
  5
B08
330
A02
100
AcDbEntity
  8
Groove
100
AcDbSpline
210
0
220
0
230
1
 70
8
 71
3
 72
11
 73
7
 74
0
 40
0
 40
0
 40
0
 40
0
 40
0.542394
 40
0.542394
 40
0.542394
 40
0.914261
 40
0.914261
 40
0.914261
 40
0.914261
 10
28.0698
 20
7.5
 30
-19.7333
 10
30.3102
 20
8.08633
 30
-16.8408
 10
32.1463
 20
8.73243
 30
-13.6533
 10
33.565
 20
9.41208
 30
-10.3004
 10
34.5387
 20
9.87812
 30
-8.00129
 10
35.3171
 20
10.36
 30
-5.62414
 10
35.9146
 20
10.8503
 30
-3.20535
  0
ELLIPSE
  5
B09
330
A02
100
AcDbEntity
  8
Groove
100
AcDbEllipse
 10
0
 20
11.9054
 30
2
 11
35.5
 21
-7.19595
 31
0
 40
0.980068
 41
0.902413
 42
0.911948
  0
LINE
  5
B0A
330
A02
100
AcDbEntity
  8
Groove
100
AcDbLine
 10
27.8613
 20
7.44595
 30
-20
 11
23
 21
7.44595
 31
-20
  0
LINE
  5
B0B
330
A02
100
AcDbEntity
  8
Groove
100
AcDbLine
 10
23
 20
7.44595
 30
-20
 11
23
 21
10.6892
 31
-4
  0
LINE
  5
B0C
330
A02
100
AcDbEntity
  8
Groove
100
AcDbLine
 10
23
 20
5.64973
 30
-8.79465
 11
23
 21
6.46054
 31
-4.79465
  0
LINE
  5
B0D
330
A02
100
AcDbEntity
  8
Groove
100
AcDbLine
 10
23
 20
6.46054
 30
-4.79465
 11
34.8437
 21
6.46054
 31
-4.79465
  0
ELLIPSE
  5
B0E
330
A02
100
AcDbEntity
  8
Groove
100
AcDbEllipse
 10
0
 20
7.83784
 30
2
 11
35.5
 21
-7.19595
 31
0
 40
0.980068
 41
1.26183
 42
1.37821
  0
LINE
  5
B0F
330
A02
100
AcDbEntity
  8
Groove
100
AcDbLine
 10
23
 20
5.64973
 30
-8.79465
 11
33.819
 21
5.64973
 31
-8.79465
  0
LINE
  5
B10
330
A02
100
AcDbEntity
  8
Groove
100
AcDbLine
 10
23
 20
5.64973
 30
-8.79465
 11
33.819
 21
5.64973
 31
-8.79465
  0
SPLINE
  5
B11
330
A02
100
AcDbEntity
  8
Groove
100
AcDbSpline
210
0
220
0
230
1
 70
8
 71
3
 72
14
 73
10
 74
0
 40
0
 40
0
 40
0
 40
0
 40
0.261761
 40
0.261761
 40
0.261761
 40
0.437754
 40
0.437754
 40
0.437754
 40
1
 40
1
 40
1
 40
1
 10
33.819
 20
5.64973
 30
-8.79465
 10
33.6454
 20
5.53969
 30
-9.33885
 10
33.4726
 20
5.32031
 30
-9.83382
 10
33.3193
 20
5.03638
 30
-10.2504
 10
33.2158
 20
4.84388
 30
-10.5309
 10
33.122
 20
4.62727
 30
-10.7774
 10
33.038
 20
4.38657
 30
-10.9899
 10
32.77
 20
3.62056
 30
-11.6684
 10
32.6217
 20
2.6713
 30
-11.9995
 10
32.6228
 20
1.72946
 30
-12
  0
LINE
  5
B12
330
A02
100
AcDbEntity
  8
Groove
100
AcDbLine
 10
23
 20
1.72946
 30
-12
 11
32.6228
 21
1.72946
 31
-12
  0
ARC
  5
B13
330
A02
100
AcDbEntity
  8
Groove
100
AcDbCircle
 10
23
 20
1.72946
 30
-8
 40
3.92027
100
AcDbArc
 50
90
 51
90
  0
LINE
  5
B14
330
A02
100
AcDbEntity
  8
Groove
100
AcDbLine
 10
23
 20
-1.72946
 30
-12
 11
23
 21
1.72946
 31
-12
  0
LINE
  5
B15
330
A02
100
AcDbEntity
  8
Groove
100
AcDbLine
 10
23
 20
1.72946
 30
-12
 11
32.6228
 21
1.72946
 31
-12
  0
LINE
  5
B16
330
A02
100
AcDbEntity
  8
Groove
100
AcDbLine
 10
32.6228
 20
1.72946
 30
-12
 11
32.6228
 21
-1.72946
 31
-12
  0
LINE
  5
B17
330
A02
100
AcDbEntity
  8
Groove
100
AcDbLine
 10
23
 20
-1.72946
 30
-12
 11
32.6228
 21
-1.72946
 31
-12
  0
LINE
  5
B18
330
A02
100
AcDbEntity
  8
Groove
100
AcDbLine
 10
23
 20
-5.64973
 30
-8.79465
 11
33.819
 21
-5.64973
 31
-8.79465
  0
SPLINE
  5
B19
330
A02
100
AcDbEntity
  8
Groove
100
AcDbSpline
210
0
220
0
230
1
 70
8
 71
3
 72
14
 73
10
 74
0
 40
0
 40
0
 40
0
 40
0
 40
0.261761
 40
0.261761
 40
0.261761
 40
0.437754
 40
0.437754
 40
0.437754
 40
1
 40
1
 40
1
 40
1
 10
33.819
 20
-5.64973
 30
-8.79465
 10
33.6454
 20
-5.53969
 30
-9.33885
 10
33.4726
 20
-5.32031
 30
-9.83382
 10
33.3193
 20
-5.03638
 30
-10.2504
 10
33.2158
 20
-4.84388
 30
-10.5309
 10
33.122
 20
-4.62727
 30
-10.7774
 10
33.038
 20
-4.38657
 30
-10.9899
 10
32.77
 20
-3.62056
 30
-11.6684
 10
32.6217
 20
-2.6713
 30
-11.9995
 10
32.6228
 20
-1.72946
 30
-12
  0
LINE
  5
B1A
330
A02
100
AcDbEntity
  8
Groove
100
AcDbLine
 10
23
 20
-1.72946
 30
-12
 11
32.6228
 21
-1.72946
 31
-12
  0
ARC
  5
B1B
330
A02
100
AcDbEntity
  8
Groove
100
AcDbCircle
 10
23
 20
-1.72946
 30
-8
 40
3.92027
100
AcDbArc
 50
-90
 51
-90
  0
ENDSEC
  0
SECTION
  2
OBJECTS
  0
DICTIONARY
  5
F000
330
0
100
AcDbDictionary
  3
ACAD_GROUP
350
F001
  0
DICTIONARY
  5
F001
330
F000
100
AcDbDictionary
  0
ENDSEC
  0
EOF